<?xml version="1.0" encoding="UTF-8" standalone="no"?><!DOCTYPE svg PUBLIC "-//W3C//DTD SVG 1.1//EN" "http://www.w3.org/Graphics/SVG/1.1/DTD/svg11.dtd"><svg width="100%" height="100%" viewBox="0 0 350 150" version="1.1" xmlns="http://www.w3.org/2000/svg" xmlns:xlink="http://www.w3.org/1999/xlink" xml:space="preserve" style="fill-rule:evenodd;clip-rule:evenodd;stroke-linejoin:round;stroke-miterlimit:1.41421;"><path d="M7.926,91.053l0,-3.897l2.636,-1.376l0,-21.548l-2.636,-1.376l0,-3.897l8.084,-0.229l2.671,0c5.763,0 9.137,3.118 9.137,9.353c0,4.31 -1.581,7.106 -3.971,8.665c0.386,0.596 0.914,1.467 1.476,2.98l2.355,6.282l2.389,1.146l0,3.897l-6.501,0l-2.952,-8.482c-1.195,-3.485 -1.512,-4.218 -3.374,-4.218l-1.23,0l0,7.427l2.53,1.376l0,3.897l-10.614,0l0,0Zm8.084,-17.514l2.003,0c2.776,0 4.393,-1.742 4.393,-4.814c0,-2.614 -1.336,-4.493 -3.515,-4.493l-2.881,0l0,9.307Zm35.232,6.648l-11.668,0c0.211,3.668 1.828,5.823 4.253,5.823c2.917,0 5.904,-2.155 5.904,-2.155l1.511,3.805c0,0 -3.514,3.851 -8.013,3.851c-6.044,0 -9.137,-4.584 -9.137,-12.379c0,-8.023 3.479,-13.296 9.383,-13.296c5.237,0 7.978,4.218 7.978,10.775c0,1.742 -0.211,3.438 -0.211,3.576l0,0Zm-11.597,-4.264l6.361,0c0,-2.613 -0.844,-4.585 -2.882,-4.585c-1.968,0 -3.198,1.88 -3.479,4.585Zm28.696,15.13l-0.633,-2.98c0,0 -2.706,3.438 -5.693,3.438c-3.41,0 -5.483,-2.613 -5.483,-7.198c0,-5.41 3.128,-7.565 8.47,-7.565l2.46,0l0,-2.521c0,-2.339 -0.949,-3.347 -2.706,-3.347c-1.793,0 -3.093,0.687 -3.093,0.687l-0.527,2.889l-3.163,0l-0.246,-6.786c0,0 4.252,-1.834 7.626,-1.834c5.342,0 7.381,2.43 7.381,9.078l0,11.325l2.635,0.825l0,3.668l-7.028,0.321Zm-0.879,-10.408l-2.003,0c-2.742,0 -3.831,0.917 -3.831,2.98c0,1.743 0.738,2.751 2.073,2.751c1.863,0 3.761,-2.659 3.761,-2.659l0,-3.072Zm27.395,2.935l1.758,4.034c-0.879,1.009 -3.62,3.897 -7.556,3.897c-5.799,0 -9.138,-4.676 -9.138,-12.47c0,-8.161 3.514,-13.205 9.665,-13.205c3.022,0 6.15,1.605 6.15,1.605l-0.176,7.519l-3.163,0l-0.492,-3.255c0,0 -1.019,-0.367 -2.425,-0.367c-2.53,0 -4.112,2.201 -4.112,6.786c0,4.997 1.476,7.886 4.393,7.886c2.461,0 4.007,-1.605 5.096,-2.43l0,0Zm18.434,1.604l1.265,3.485c-1.722,1.65 -3.69,2.842 -5.974,2.842c-4.042,0 -5.202,-3.667 -5.202,-8.94l0,-10.545l-3.268,0l0,-4.447l3.268,-0.596l0,-6.328l5.272,-1.237l0,7.565l4.92,0l0,5.043l-4.92,0l0,10.086c0,2.935 0.387,4.127 1.863,4.127c0.949,0 2.319,-0.734 2.776,-1.055l0,0Zm15.992,5.869l0,-3.897l2.635,-1.376l0,-21.548l-2.635,-1.376l0,-3.897l8.434,-0.229l9.489,21.182l0,-15.68l-2.565,-1.376l0,-3.897l10.016,-0.229l0,4.126l-2.636,1.376l0,26.821l-5.869,0l-9.419,-20.769l0,15.496l2.742,1.376l0,3.897l-10.192,0l0,0Zm47.252,-10.866l-11.668,0c0.211,3.668 1.827,5.823 4.252,5.823c2.917,0 5.905,-2.155 5.905,-2.155l1.511,3.805c0,0 -3.515,3.851 -8.013,3.851c-6.045,0 -9.138,-4.584 -9.138,-12.379c0,-8.023 3.48,-13.296 9.384,-13.296c5.236,0 7.978,4.218 7.978,10.775c0,1.742 -0.211,3.438 -0.211,3.576l0,0Zm-11.598,-4.264l6.361,0c0,-2.613 -0.843,-4.585 -2.882,-4.585c-1.968,0 -3.198,1.88 -3.479,4.585Zm29.188,9.261l1.265,3.485c-1.722,1.65 -3.69,2.842 -5.974,2.842c-4.042,0 -5.202,-3.667 -5.202,-8.94l0,-10.545l-3.268,0l0,-4.447l3.268,-0.596l0,-6.328l5.272,-1.237l0,7.565l4.92,0l0,5.043l-4.92,0l0,10.086c0,2.935 0.387,4.127 1.863,4.127c0.949,0 2.319,-0.734 2.776,-1.055l0,0Zm17.766,0l1.265,3.485c-1.722,1.65 -3.69,2.842 -5.974,2.842c-4.042,0 -5.202,-3.667 -5.202,-8.94l0,-10.545l-3.268,0l0,-4.447l3.268,-0.596l0,-6.328l5.272,-1.237l0,7.565l4.92,0l0,5.043l-4.92,0l0,10.086c0,2.935 0.386,4.127 1.863,4.127c0.948,0 2.319,-0.734 2.776,-1.055l0,0Zm12.143,-29.664l0,12.746c0.597,-0.596 2.354,-2.43 5.025,-2.43c4.71,0 7.205,4.448 7.205,12.15c0,8.62 -3.444,13.617 -10.192,13.617c-3.866,0 -7.31,-1.009 -7.31,-1.009l0,-30.122l-2.636,-0.917l0,-3.668l7.908,-0.367Zm0,17.881l0,12.333c0,0 0.808,0.367 2.6,0.367c3.058,0 4.183,-3.026 4.183,-7.656c0,-4.585 -0.984,-7.107 -3.444,-7.107c-2.109,0 -3.339,2.063 -3.339,2.063l0,0Zm16.606,-3.209l0,-3.668l8.083,-0.229l0,15.817c0,2.522 0.562,3.668 2.144,3.668c2.284,0 3.971,-2.475 3.971,-2.475l0,-11.967l-2.811,-1.146l0,-3.668l8.083,-0.229l0,19.944l2.812,0.917l0,3.576l-7.416,0.321l-0.351,-3.209c0,0 -2.812,3.667 -6.151,3.667c-3.514,0 -5.552,-3.071 -5.552,-8.206l0,-11.967l-2.812,-1.146Zm39.134,14.992l1.265,3.485c-1.722,1.65 -3.69,2.842 -5.975,2.842c-4.041,0 -5.201,-3.667 -5.201,-8.94l0,-10.545l-3.268,0l0,-4.447l3.268,-0.596l0,-6.328l5.272,-1.237l0,7.565l4.92,0l0,5.043l-4.92,0l0,10.086c0,2.935 0.386,4.127 1.862,4.127c0.949,0 2.32,-0.734 2.777,-1.055l0,0Zm7.468,-26.454c0,-2.613 1.441,-4.126 3.023,-4.126c1.827,0 2.952,1.237 2.952,4.126c0,2.705 -1.511,4.172 -2.952,4.172c-1.898,0 -3.023,-1.467 -3.023,-4.172Zm5.905,27.509l2.46,1.146l0,3.668l-10.544,0l0,-3.668l2.812,-1.146l0,-14.901l-2.812,-1.146l0,-3.668l8.084,-0.229l0,19.944Zm14.743,-10.729l2.32,0l2.389,-4.676l-1.546,-0.642l0,-3.668l9.067,-0.229l0,3.897l-2.46,0.596l-3.268,6.006l3.936,9.491l2.671,1.1l0,3.668l-6.502,0l-4.358,-11.187l-2.249,0l0,6.373l1.933,1.146l0,3.668l-10.016,0l0,-3.668l2.811,-1.146l0,-25.767l-2.811,-0.917l0,-3.668l8.083,-0.367l0,19.99Zm24.69,0l2.319,0l2.39,-4.676l-1.546,-0.642l0,-3.668l9.067,-0.229l0,3.897l-2.46,0.596l-3.269,6.006l3.936,9.491l2.671,1.1l0,3.668l-6.501,0l-4.358,-11.187l-2.249,0l0,6.373l1.932,1.146l0,3.668l-10.016,0l0,-3.668l2.812,-1.146l0,-25.767l-2.812,-0.917l0,-3.668l8.084,-0.367l0,19.99Z" style="fill:#2581de;fill-rule:nonzero;"/></svg>